<svg xmlns="http://www.w3.org/2000/svg" xmlns:xlink="http://www.w3.org/1999/xlink" width="500" zoomAndPan="magnify" viewBox="0 0 375 374.999991" height="500" preserveAspectRatio="xMidYMid meet" version="1.2"><defs><clipPath id="872c282335"><path d="M 182.816406 209.179688 L 294.085938 209.179688 L 294.085938 251.121094 L 182.816406 251.121094 Z M 182.816406 209.179688 "/></clipPath></defs><g id="a58af91349"><rect x="0" width="375" y="0" height="374.999991" style="fill:#ffffff;fill-opacity:1;stroke:none;"/><rect x="0" width="375" y="0" height="374.999991" style="fill:#f9f6f2;fill-opacity:1;stroke:none;"/><g style="fill:#000000;fill-opacity:1;"><g transform="translate(113.44773, 237.277306)"><path style="stroke:none" d="M 8.625 0 L 8.625 -99.15625 L 29.578125 -99.15625 L 29.578125 -58.25 L 72.140625 -58.25 L 72.140625 -99.15625 L 93.0625 -99.15625 L 93.0625 0 L 72.140625 0 L 72.140625 -40.96875 L 29.578125 -40.96875 L 29.578125 0 Z M 8.625 0 "/></g></g><g clip-rule="nonzero" clip-path="url(#872c282335)"><path style=" stroke:none;fill-rule:nonzero;fill:#f9f6f2;fill-opacity:1;" d="M 182.816406 209.179688 L 294.058594 209.179688 L 294.058594 251.121094 L 182.816406 251.121094 Z M 182.816406 209.179688 "/></g><g style="fill:#000000;fill-opacity:1;"><g transform="translate(184.088546, 228.120667)"><path style="stroke:none" d="M 15.6875 -15.140625 L 15.6875 0 L 12.1875 0 L 12.1875 -6.203125 L 5.296875 -6.203125 L 5.296875 0 L 1.796875 0 L 1.796875 -15.140625 L 5.296875 -15.140625 L 5.296875 -9.171875 L 12.1875 -9.171875 L 12.1875 -15.140625 Z M 15.6875 -15.140625 "/></g></g><g style="fill:#000000;fill-opacity:1;"><g transform="translate(203.309122, 228.120667)"><path style="stroke:none" d="M 1.796875 -15.140625 L 5.296875 -15.140625 L 5.296875 0 L 1.796875 0 Z M 1.796875 -15.140625 "/></g></g><g style="fill:#000000;fill-opacity:1;"><g transform="translate(212.140203, 228.120667)"><path style="stroke:none" d="M 15.578125 0 L 15.5625 -9.09375 L 11.109375 -1.59375 L 9.515625 -1.59375 L 5.078125 -8.890625 L 5.078125 0 L 1.796875 0 L 1.796875 -15.140625 L 4.703125 -15.140625 L 10.359375 -5.734375 L 15.953125 -15.140625 L 18.828125 -15.140625 L 18.875 0 Z M 15.578125 0 "/></g></g><g style="fill:#000000;fill-opacity:1;"><g transform="translate(234.542573, 228.120667)"><path style="stroke:none" d="M 11.765625 -3.25 L 4.734375 -3.25 L 3.390625 0 L -0.1875 0 L 6.5625 -15.140625 L 10.015625 -15.140625 L 16.796875 0 L 13.109375 0 Z M 10.671875 -5.90625 L 8.265625 -11.703125 L 5.859375 -5.90625 Z M 10.671875 -5.90625 "/></g></g><g style="fill:#000000;fill-opacity:1;"><g transform="translate(252.85407, 228.120667)"><path style="stroke:none" d="M 15.6875 -15.140625 L 15.6875 0 L 12.8125 0 L 5.265625 -9.203125 L 5.265625 0 L 1.796875 0 L 1.796875 -15.140625 L 4.703125 -15.140625 L 12.234375 -5.953125 L 12.234375 -15.140625 Z M 15.6875 -15.140625 "/></g></g><g style="fill:#000000;fill-opacity:1;"><g transform="translate(272.074645, 228.120667)"><path style="stroke:none" d="M 6.78125 0.265625 C 5.582031 0.265625 4.421875 0.101562 3.296875 -0.21875 C 2.179688 -0.550781 1.285156 -0.976562 0.609375 -1.5 L 1.796875 -4.140625 C 2.441406 -3.660156 3.210938 -3.273438 4.109375 -2.984375 C 5.003906 -2.691406 5.898438 -2.546875 6.796875 -2.546875 C 7.785156 -2.546875 8.519531 -2.691406 9 -2.984375 C 9.476562 -3.285156 9.71875 -3.679688 9.71875 -4.171875 C 9.71875 -4.535156 9.578125 -4.835938 9.296875 -5.078125 C 9.015625 -5.316406 8.648438 -5.503906 8.203125 -5.640625 C 7.765625 -5.785156 7.171875 -5.945312 6.421875 -6.125 C 5.273438 -6.394531 4.332031 -6.664062 3.59375 -6.9375 C 2.851562 -7.21875 2.21875 -7.660156 1.6875 -8.265625 C 1.164062 -8.867188 0.90625 -9.675781 0.90625 -10.6875 C 0.90625 -11.570312 1.144531 -12.367188 1.625 -13.078125 C 2.101562 -13.796875 2.820312 -14.363281 3.78125 -14.78125 C 4.738281 -15.195312 5.910156 -15.40625 7.296875 -15.40625 C 8.265625 -15.40625 9.207031 -15.289062 10.125 -15.0625 C 11.050781 -14.832031 11.859375 -14.5 12.546875 -14.0625 L 11.46875 -11.40625 C 10.070312 -12.195312 8.671875 -12.59375 7.265625 -12.59375 C 6.285156 -12.59375 5.5625 -12.429688 5.09375 -12.109375 C 4.625 -11.796875 4.390625 -11.378906 4.390625 -10.859375 C 4.390625 -10.335938 4.660156 -9.953125 5.203125 -9.703125 C 5.742188 -9.453125 6.570312 -9.203125 7.6875 -8.953125 C 8.832031 -8.679688 9.773438 -8.40625 10.515625 -8.125 C 11.253906 -7.851562 11.882812 -7.421875 12.40625 -6.828125 C 12.9375 -6.242188 13.203125 -5.445312 13.203125 -4.4375 C 13.203125 -3.570312 12.957031 -2.78125 12.46875 -2.0625 C 11.988281 -1.351562 11.265625 -0.785156 10.296875 -0.359375 C 9.328125 0.0546875 8.15625 0.265625 6.78125 0.265625 Z M 6.78125 0.265625 "/></g></g><g style="fill:#000000;fill-opacity:1;"><g transform="translate(287.615608, 228.120667)"><path style="stroke:none" d="M 15.6875 -15.140625 L 15.6875 0 L 12.1875 0 L 12.1875 -6.203125 L 5.296875 -6.203125 L 5.296875 0 L 1.796875 0 L 1.796875 -15.140625 L 5.296875 -15.140625 L 5.296875 -9.171875 L 12.1875 -9.171875 L 12.1875 -15.140625 Z M 15.6875 -15.140625 "/></g></g><g style="fill:#000000;fill-opacity:1;"><g transform="translate(306.836184, 228.120667)"><path style="stroke:none" d="M 8.53125 0.265625 C 6.363281 0.265625 4.675781 -0.332031 3.46875 -1.53125 C 2.269531 -2.726562 1.671875 -4.441406 1.671875 -6.671875 L 1.671875 -15.140625 L 5.171875 -15.140625 L 5.171875 -6.796875 C 5.171875 -4.085938 6.296875 -2.734375 8.546875 -2.734375 C 9.640625 -2.734375 10.472656 -3.0625 11.046875 -3.71875 C 11.628906 -4.375 11.921875 -5.398438 11.921875 -6.796875 L 11.921875 -15.140625 L 15.390625 -15.140625 L 15.390625 -6.671875 C 15.390625 -4.441406 14.785156 -2.726562 13.578125 -1.53125 C 12.367188 -0.332031 10.6875 0.265625 8.53125 0.265625 Z M 8.53125 0.265625 "/></g></g><path style="fill:none;stroke-width:4;stroke-linecap:butt;stroke-linejoin:miter;stroke:#000000;stroke-opacity:1;stroke-miterlimit:4;" d="M 0.000432999 2.002135 L 182.801184 1.999816 " transform="matrix(0.749984,-0.00486259,0.00486259,0.749984,185.974315,233.822651)"/></g></svg>